<?xml version="1.0" encoding="utf-8"?>
<!-- Generator: Adobe Illustrator 16.0.0, SVG Export Plug-In . SVG Version: 6.00 Build 0)  -->
<!DOCTYPE svg PUBLIC "-//W3C//DTD SVG 1.1//EN" "http://www.w3.org/Graphics/SVG/1.1/DTD/svg11.dtd">
<svg version="1.1" id="Layer_1" xmlns="http://www.w3.org/2000/svg" xmlns:xlink="http://www.w3.org/1999/xlink" x="0px" y="0px"
	 width="291.938px" height="40.595px" viewBox="0 0 291.938 40.595" enable-background="new 0 0 291.938 40.595"
	 xml:space="preserve">
<g>
	<g>
		<rect x="52" fill="#A41F35" width="20" height="8"/>
		<rect x="13" fill="#A41F35" width="8" height="26"/>
		<rect x="26" fill="#A41F35" width="8" height="38"/>
		<rect fill="#A41F35" width="8" height="38"/>
		<rect x="52" y="13" fill="#A41F35" width="8" height="25"/>
		<rect x="39" fill="#A41F35" width="8" height="8"/>
		<rect x="39" y="13" fill="#8B8B8C" width="8" height="25"/>
	</g>
	<g>
		<path fill="#A41F35" d="M85.977,30.188h2.871l1.386,5.82h0.022l1.43-5.82h2.838v7.834h-1.848v-6.084h-0.022l-1.551,6.084h-1.727
			l-1.595-6.084h-0.022v6.084h-1.782V30.188z"/>
		<path fill="#A41F35" d="M100.949,36.8c0,0.407,0.011,0.858,0.154,1.222h-1.584c-0.066-0.199-0.099-0.408-0.11-0.605h-0.022
			c-0.286,0.462-1.144,0.759-1.76,0.759c-1.122,0-1.958-0.616-1.958-1.737c0-1.408,1.133-1.904,3.003-2.168l0.627-0.088v-0.484
			c0-0.439-0.352-0.627-0.814-0.627c-0.55,0-0.814,0.197-0.902,0.781h-1.65c0.055-1.684,1.618-1.838,2.41-1.838
			c1.595,0,2.596,0.375,2.607,1.695V36.8z M99.298,35.172l-1.155,0.33c-0.429,0.121-0.825,0.285-0.825,0.759
			c0,0.462,0.385,0.66,0.803,0.66c0.671,0,1.177-0.451,1.177-1.343V35.172z"/>
		<path fill="#A41F35" d="M106.327,33.896c-0.341-0.407-1.078-0.628-1.617-0.628c-0.429,0-0.737,0.154-0.737,0.451
			c0,1.002,3.465,0.177,3.465,2.365c0,1.541-1.364,2.091-2.64,2.091c-1.276,0-2.002-0.362-2.86-1.155l1.067-0.924
			c0.528,0.506,1.067,0.825,1.848,0.825c0.286,0,0.935-0.065,0.935-0.595c0-0.912-3.465-0.187-3.465-2.266
			c0-1.475,1.287-2.047,2.476-2.047c0.902,0,1.793,0.319,2.585,0.848L106.327,33.896z"/>
		<path fill="#A41F35" d="M112.443,33.896c-0.341-0.407-1.078-0.628-1.617-0.628c-0.429,0-0.737,0.154-0.737,0.451
			c0,1.002,3.465,0.177,3.465,2.365c0,1.541-1.364,2.091-2.64,2.091c-1.276,0-2.002-0.362-2.86-1.155l1.067-0.924
			c0.528,0.506,1.067,0.825,1.848,0.825c0.286,0,0.935-0.065,0.935-0.595c0-0.912-3.465-0.187-3.465-2.266
			c0-1.475,1.287-2.047,2.476-2.047c0.902,0,1.793,0.319,2.585,0.848L112.443,33.896z"/>
		<path fill="#A41F35" d="M119.704,36.8c0,0.407,0.011,0.858,0.154,1.222h-1.584c-0.066-0.199-0.099-0.408-0.11-0.605h-0.022
			c-0.286,0.462-1.144,0.759-1.76,0.759c-1.122,0-1.958-0.616-1.958-1.737c0-1.408,1.133-1.904,3.003-2.168l0.627-0.088v-0.484
			c0-0.439-0.352-0.627-0.814-0.627c-0.55,0-0.814,0.197-0.902,0.781h-1.65c0.055-1.684,1.618-1.838,2.41-1.838
			c1.595,0,2.596,0.375,2.607,1.695V36.8z M118.054,35.172l-1.155,0.33c-0.429,0.121-0.825,0.285-0.825,0.759
			c0,0.462,0.385,0.66,0.803,0.66c0.671,0,1.177-0.451,1.177-1.343V35.172z"/>
		<path fill="#A41F35" d="M125.083,34.137c-0.308-0.659-0.836-0.803-1.1-0.803c-0.979,0-1.331,0.76-1.331,1.761
			s0.418,1.761,1.331,1.761c0.528,0,0.946-0.199,1.221-0.859l1.232,0.628c-0.528,0.935-1.485,1.551-2.607,1.551
			c-1.75,0-2.959-1.11-2.959-3.08c0-1.937,1.287-3.081,2.904-3.081c1.111,0,2.068,0.408,2.629,1.431L125.083,34.137z"/>
		<path fill="#A41F35" d="M127.403,30.188h1.716v2.531h0.022c0.33-0.451,1.067-0.705,1.606-0.705c1.232,0,1.837,0.715,1.837,1.893
			v4.115h-1.716v-3.51c0-0.902-0.484-1.111-0.858-1.111c-0.396,0-0.891,0.253-0.891,1.342v3.279h-1.716V30.188z"/>
		<path fill="#A41F35" d="M139.306,38.021h-1.716v-0.518c-0.44,0.518-1.167,0.671-1.694,0.671c-1.386,0-1.771-0.803-1.771-1.683
			v-4.324h1.716v3.828c0,0.518,0.187,0.793,0.836,0.793c0.495,0,0.914-0.275,0.914-0.914v-3.707h1.716V38.021z"/>
		<path fill="#A41F35" d="M144.64,33.896c-0.341-0.407-1.078-0.628-1.617-0.628c-0.429,0-0.737,0.154-0.737,0.451
			c0,1.002,3.465,0.177,3.465,2.365c0,1.541-1.364,2.091-2.64,2.091c-1.276,0-2.002-0.362-2.861-1.155l1.067-0.924
			c0.528,0.506,1.067,0.825,1.848,0.825c0.286,0,0.935-0.065,0.935-0.595c0-0.912-3.465-0.187-3.465-2.266
			c0-1.475,1.287-2.047,2.476-2.047c0.902,0,1.793,0.319,2.585,0.848L144.64,33.896z"/>
		<path fill="#A41F35" d="M148.259,35.447c0.011,1.121,0.726,1.474,1.276,1.474c0.638,0,0.935-0.33,1.43-1.034l1.287,0.671
			c-0.595,1.101-1.529,1.617-2.838,1.617c-1.815,0-2.872-1.254-2.872-2.904c0-2.068,1.089-3.257,2.872-3.257
			c2.134,0,2.861,1.629,2.871,3.434H148.259z M150.569,34.391c-0.055-0.858-0.671-1.123-1.166-1.123s-1.089,0.354-1.166,1.123
			H150.569z"/>
		<path fill="#A41F35" d="M156.377,33.334h-1.023v2.871c0,0.463,0.232,0.584,0.54,0.584c0.187,0,0.429-0.022,0.517-0.033v1.354
			c-0.22,0.021-0.727,0.065-1.1,0.065c-1.463,0-1.672-0.913-1.672-1.761v-3.08h-0.837v-1.056h0.837v-1.694h1.715v1.694h1.023V33.334
			z"/>
		<path fill="#A41F35" d="M160.25,33.334h-1.023v2.871c0,0.463,0.23,0.584,0.539,0.584c0.188,0,0.429-0.022,0.518-0.033v1.354
			c-0.221,0.021-0.727,0.065-1.102,0.065c-1.463,0-1.672-0.913-1.672-1.761v-3.08h-0.836v-1.056h0.836v-1.694h1.717v1.694h1.023
			V33.334z"/>
		<path fill="#A41F35" d="M165.023,33.896c-0.341-0.407-1.078-0.628-1.617-0.628c-0.429,0-0.736,0.154-0.736,0.451
			c0,1.002,3.465,0.177,3.465,2.365c0,1.541-1.364,2.091-2.641,2.091c-1.275,0-2.002-0.362-2.859-1.155l1.066-0.924
			c0.528,0.506,1.067,0.825,1.848,0.825c0.287,0,0.936-0.065,0.936-0.595c0-0.912-3.465-0.187-3.465-2.266
			c0-1.475,1.287-2.047,2.475-2.047c0.902,0,1.793,0.319,2.586,0.848L165.023,33.896z"/>
		<path fill="#A41F35" d="M170.392,30.188h1.958v7.834h-1.958V30.188z"/>
		<path fill="#A41F35" d="M173.879,32.168h1.716v0.518c0.44-0.518,1.166-0.672,1.694-0.672c1.387,0,1.771,0.804,1.771,1.684v4.324
			h-1.717v-3.664c0-0.572-0.176-0.957-0.836-0.957c-0.693,0-0.913,0.451-0.913,0.979v3.643h-1.716V32.168z"/>
		<path fill="#A41F35" d="M184.395,33.896c-0.341-0.407-1.078-0.628-1.617-0.628c-0.429,0-0.736,0.154-0.736,0.451
			c0,1.002,3.465,0.177,3.465,2.365c0,1.541-1.364,2.091-2.641,2.091c-1.275,0-2.002-0.362-2.859-1.155l1.066-0.924
			c0.528,0.506,1.067,0.825,1.848,0.825c0.287,0,0.936-0.065,0.936-0.595c0-0.912-3.465-0.187-3.465-2.266
			c0-1.475,1.287-2.047,2.475-2.047c0.902,0,1.793,0.319,2.586,0.848L184.395,33.896z"/>
		<path fill="#A41F35" d="M189.609,33.334h-1.023v2.871c0,0.463,0.23,0.584,0.539,0.584c0.188,0,0.429-0.022,0.518-0.033v1.354
			c-0.221,0.021-0.727,0.065-1.102,0.065c-1.463,0-1.672-0.913-1.672-1.761v-3.08h-0.836v-1.056h0.836v-1.694h1.717v1.694h1.023
			V33.334z"/>
		<path fill="#A41F35" d="M190.588,31.508v-1.32h1.716v1.32H190.588z M192.304,32.168v5.854h-1.716v-5.854H192.304z"/>
		<path fill="#A41F35" d="M196.736,33.334h-1.023v2.871c0,0.463,0.232,0.584,0.54,0.584c0.187,0,0.429-0.022,0.517-0.033v1.354
			c-0.22,0.021-0.727,0.065-1.1,0.065c-1.463,0-1.672-0.913-1.672-1.761v-3.08h-0.837v-1.056h0.837v-1.694h1.715v1.694h1.023V33.334
			z"/>
		<path fill="#A41F35" d="M202.896,38.021h-1.715v-0.518c-0.441,0.518-1.167,0.671-1.695,0.671c-1.386,0-1.771-0.803-1.771-1.683
			v-4.324h1.717v3.828c0,0.518,0.188,0.793,0.836,0.793c0.495,0,0.914-0.275,0.914-0.914v-3.707h1.715V38.021z"/>
		<path fill="#A41F35" d="M207.33,33.334h-1.023v2.871c0,0.463,0.23,0.584,0.539,0.584c0.188,0,0.429-0.022,0.518-0.033v1.354
			c-0.221,0.021-0.727,0.065-1.102,0.065c-1.463,0-1.672-0.913-1.672-1.761v-3.08h-0.836v-1.056h0.836v-1.694h1.717v1.694h1.023
			V33.334z"/>
		<path fill="#A41F35" d="M209.606,35.447c0.011,1.121,0.726,1.474,1.276,1.474c0.638,0,0.936-0.33,1.43-1.034l1.287,0.671
			c-0.594,1.101-1.529,1.617-2.838,1.617c-1.815,0-2.871-1.254-2.871-2.904c0-2.068,1.089-3.257,2.871-3.257
			c2.135,0,2.86,1.629,2.871,3.434H209.606z M211.916,34.391c-0.055-0.858-0.67-1.123-1.166-1.123c-0.494,0-1.088,0.354-1.166,1.123
			H211.916z"/>
		<path fill="#A41F35" d="M223.698,35.095c0,1.97-1.287,3.08-3.114,3.08c-1.826,0-3.113-1.11-3.113-3.08s1.287-3.081,3.113-3.081
			C222.411,32.014,223.698,33.125,223.698,35.095z M219.188,35.095c0,1.001,0.418,1.761,1.396,1.761c0.98,0,1.398-0.76,1.398-1.826
			c0-0.936-0.418-1.695-1.398-1.695C219.605,33.334,219.188,34.094,219.188,35.095z"/>
		<path fill="#A41F35" d="M225.039,33.334h-0.902v-1.056h0.902v-0.572c0-0.66,0.209-1.606,1.672-1.606
			c0.375,0,0.902,0.055,1.123,0.133v1.254h-0.484c-0.297,0-0.594,0.088-0.594,0.418v0.374h1.056v1.056h-1.056v4.688h-1.717V33.334z"
			/>
		<path fill="#A41F35" d="M231.111,30.188h6.051v1.519h-2.047v6.315h-1.958v-6.315h-2.046V30.188z"/>
		<path fill="#A41F35" d="M238.547,35.447c0.012,1.121,0.727,1.474,1.277,1.474c0.637,0,0.935-0.33,1.43-1.034l1.287,0.671
			c-0.594,1.101-1.529,1.617-2.838,1.617c-1.816,0-2.872-1.254-2.872-2.904c0-2.068,1.089-3.257,2.872-3.257
			c2.134,0,2.859,1.629,2.871,3.434H238.547z M240.857,34.391c-0.055-0.858-0.671-1.123-1.166-1.123s-1.089,0.354-1.166,1.123
			H240.857z"/>
		<path fill="#A41F35" d="M247.568,34.137c-0.309-0.659-0.836-0.803-1.101-0.803c-0.979,0-1.331,0.76-1.331,1.761
			s0.418,1.761,1.331,1.761c0.528,0,0.946-0.199,1.222-0.859l1.232,0.628c-0.529,0.935-1.486,1.551-2.607,1.551
			c-1.75,0-2.96-1.11-2.96-3.08c0-1.937,1.287-3.081,2.904-3.081c1.111,0,2.068,0.408,2.63,1.431L247.568,34.137z"/>
		<path fill="#A41F35" d="M249.889,30.188h1.717v2.531h0.021c0.33-0.451,1.067-0.705,1.606-0.705c1.231,0,1.837,0.715,1.837,1.893
			v4.115h-1.716v-3.51c0-0.902-0.484-1.111-0.858-1.111c-0.396,0-0.891,0.253-0.891,1.342v3.279h-1.717V30.188z"/>
		<path fill="#A41F35" d="M256.609,32.168h1.717v0.518c0.439-0.518,1.166-0.672,1.693-0.672c1.387,0,1.771,0.804,1.771,1.684v4.324
			h-1.716v-3.664c0-0.572-0.177-0.957-0.837-0.957c-0.692,0-0.912,0.451-0.912,0.979v3.643h-1.717V32.168z"/>
		<path fill="#A41F35" d="M269.139,35.095c0,1.97-1.287,3.08-3.113,3.08s-3.113-1.11-3.113-3.08s1.287-3.081,3.113-3.081
			S269.139,33.125,269.139,35.095z M264.629,35.095c0,1.001,0.418,1.761,1.396,1.761c0.979,0,1.397-0.76,1.397-1.826
			c0-0.936-0.418-1.695-1.397-1.695C265.047,33.334,264.629,34.094,264.629,35.095z"/>
		<path fill="#A41F35" d="M270.26,38.021v-7.834h1.717v7.834H270.26z"/>
		<path fill="#A41F35" d="M279.324,35.095c0,1.97-1.287,3.08-3.113,3.08s-3.113-1.11-3.113-3.08s1.287-3.081,3.113-3.081
			S279.324,33.125,279.324,35.095z M274.814,35.095c0,1.001,0.418,1.761,1.396,1.761c0.979,0,1.397-0.76,1.397-1.826
			c0-0.936-0.418-1.695-1.397-1.695C275.232,33.334,274.814,34.094,274.814,35.095z"/>
		<path fill="#A41F35" d="M285.583,32.168v5.864c0,1.858-1.903,1.925-2.806,1.925c-1.76,0-2.684-0.594-2.695-2.023h1.783
			c0.01,0.638,0.373,0.901,0.99,0.901c0.659,0,1.066-0.132,1.066-0.989v-0.672c-0.374,0.363-1.1,0.484-1.617,0.484
			c-1.639,0-2.277-1.32-2.277-2.795c0-1.43,0.748-2.85,2.299-2.85c0.639,0,1.188,0.144,1.673,0.617v-0.463H285.583z M282.822,33.268
			c-0.539,0-1.078,0.309-1.078,1.574c0,0.703,0.153,1.562,1.056,1.562c1.101,0,1.134-0.957,1.134-1.562
			C283.934,33.653,283.35,33.268,282.822,33.268z"/>
		<path fill="#A41F35" d="M286.848,38.615c0.197,0.011,0.396,0.021,0.582,0.021c0.518,0,0.793-0.099,0.793-0.429
			c0-0.088-0.012-0.187-0.154-0.627l-1.717-5.413h1.805l0.946,4.467h0.022l0.957-4.467h1.859l-2.059,6.238
			c-0.297,0.891-0.67,1.551-1.683,1.551h-1.353V38.615z"/>
	</g>
</g>
</svg>
